get_iplayer v2.94, Copyright (C) 2008-2010 Phil Lewis
  This program comes with ABSOLUTELY NO WARRANTY; for details use --warranty.
  This is free software, and you are welcome to redistribute it under certain
  conditions; use --conditions for details.

Matches:
105:	BBC News at One - 31/08/2015, BBC One, , default

INFO: 1 Matching Programmes
INFO: Checking existence of default version
INFO: flashvhigh1,flashvhigh2,flashhigh1,flashhigh2,flashstd1,flashstd2,flashlow1,flashlow2 modes will be tried for version default
INFO: Trying flashvhigh1 mode to record tv: BBC News at One - 31/08/2015
INFO: File name prefix = BBC_News_at_One_-_31_08_2015_b067glr8_default                 
RTMPDump v2.4
(c) 2010 Andrej Stepanchuk, Howard Chu, The Flvstreamer Team; license: GPL
Connecting ...
INFO: Connected...
Starting download at: 0.000 kB
INFO: Metadata:
INFO:   duration              1239.81
INFO:   moovPosition          36.00
INFO:   width                 832.00
INFO:   height                468.00
INFO:   videocodecid          avc1
INFO:   audiocodecid          mp4a
INFO:   avcprofile            77.00
INFO:   avclevel              31.00
INFO:   aacaot                2.00
INFO:   videoframerate        25.00
INFO:   audiosamplerate       48000.00
INFO:   audiochannels         2.00
INFO: trackinfo:
INFO:   length                30995000.00
INFO:   timescale             25000.00
INFO:   language              und
INFO: sampledescription:
INFO:   sampletype            avc1
INFO:   length                59510784.00
INFO:   timescale             48000.00
INFO:   language              und
INFO: sampledescription:
INFO:   sampletype            mp4a
5743.802 kB / 350.12 sec (0.0%)
5743.802 kB / 350.12 sec (1.3%)
5743.802 kB / 350.12 sec (2.1%)
5743.802 kB / 350.12 sec (3.33%)
5743.802 kB / 350.12 sec (4.6%)
5743.802 kB / 350.12 sec (5.3%)
5743.802 kB / 350.12 sec (6.9%)
5743.802 kB / 350.12 sec (7.2%)
5743.802 kB / 350.12 sec (8.4%)
5743.802 kB / 350.12 sec (9.5%)
5743.802 kB / 350.12 sec (10.0%)
5743.802 kB / 350.12 sec (11.3%)
5743.802 kB / 350.12 sec (12.1%)
5743.802 kB / 350.12 sec (13.33%)
5743.802 kB / 350.12 sec (14.6%)
5743.802 kB / 350.12 sec (15.3%)
5743.802 kB / 350.12 sec (16.9%)
5743.802 kB / 350.12 sec (17.2%)
5743.802 kB / 350.12 sec (18.4%)
5743.802 kB / 350.12 sec (19.5%)
5743.802 kB / 350.12 sec (20.0%)
5743.802 kB / 350.12 sec (21.3%)
5743.802 kB / 350.12 sec (22.1%)
5743.802 kB / 350.12 sec (23.33%)
5743.802 kB / 350.12 sec (24.6%)
5743.802 kB / 350.12 sec (25.3%)
5743.802 kB / 350.12 sec (26.9%)
5743.802 kB / 350.12 sec (27.2%)
5743.802 kB / 350.12 sec (28.4%)
5743.802 kB / 350.12 sec (29.5%)
5743.802 kB / 350.12 sec (30.0%)
5743.802 kB / 350.12 sec (31.3%)
5743.802 kB / 350.12 sec (32.1%)
5743.802 kB / 350.12 sec (33.33%)
5743.802 kB / 350.12 sec (34.6%)
5743.802 kB / 350.12 sec (35.3%)
5743.802 kB / 350.12 sec (36.9%)
5743.802 kB / 350.12 sec (37.2%)
5743.802 kB / 350.12 sec (38.4%)
5743.802 kB / 350.12 sec (39.5%)
5743.802 kB / 350.12 sec (40.0%)
5743.802 kB / 350.12 sec (41.3%)
5743.802 kB / 350.12 sec (42.1%)
5743.802 kB / 350.12 sec (43.33%)
5743.802 kB / 350.12 sec (44.6%)
5743.802 kB / 350.12 sec (45.3%)
5743.802 kB / 350.12 sec (46.9%)
5743.802 kB / 350.12 sec (47.2%)
5743.802 kB / 350.12 sec (48.4%)
5743.802 kB / 350.12 sec (49.5%)
5743.802 kB / 350.12 sec (50.0%)
5743.802 kB / 350.12 sec (51.3%)
5743.802 kB / 350.12 sec (52.1%)
5743.802 kB / 350.12 sec (53.33%)
5743.802 kB / 350.12 sec (54.6%)
5743.802 kB / 350.12 sec (55.3%)
5743.802 kB / 350.12 sec (56.9%)
5743.802 kB / 350.12 sec (57.2%)
5743.802 kB / 350.12 sec (58.4%)
5743.802 kB / 350.12 sec (59.5%)
5743.802 kB / 350.12 sec (60.0%)
5743.802 kB / 350.12 sec (61.3%)
5743.802 kB / 350.12 sec (62.1%)
5743.802 kB / 350.12 sec (63.33%)
5743.802 kB / 350.12 sec (64.6%)
5743.802 kB / 350.12 sec (65.3%)
5743.802 kB / 350.12 sec (66.9%)
5743.802 kB / 350.12 sec (67.2%)
5743.802 kB / 350.12 sec (68.4%)
5743.802 kB / 350.12 sec (69.5%)
5743.802 kB / 350.12 sec (70.0%)
5743.802 kB / 350.12 sec (71.3%)
5743.802 kB / 350.12 sec (72.1%)
5743.802 kB / 350.12 sec (73.33%)
5743.802 kB / 350.12 sec (74.6%)
5743.802 kB / 350.12 sec (75.3%)
5743.802 kB / 350.12 sec (76.9%)
5743.802 kB / 350.12 sec (77.2%)
5743.802 kB / 350.12 sec (78.4%)
5743.802 kB / 350.12 sec (79.5%)
5743.802 kB / 350.12 sec (80.0%)
5743.802 kB / 350.12 sec (81.3%)
5743.802 kB / 350.12 sec (82.1%)
5743.802 kB / 350.12 sec (83.33%)
5743.802 kB / 350.12 sec (84.6%)
5743.802 kB / 350.12 sec (85.3%)
5743.802 kB / 350.12 sec (86.9%)
5743.802 kB / 350.12 sec (87.2%)
5743.802 kB / 350.12 sec (88.4%)
5743.802 kB / 350.12 sec (89.5%)
5743.802 kB / 350.12 sec (90.0%)
5743.802 kB / 350.12 sec (91.3%)
5743.802 kB / 350.12 sec (92.1%)
5743.802 kB / 350.12 sec (93.33%)
5743.802 kB / 350.12 sec (94.6%)
5743.802 kB / 350.12 sec (95.3%)
5743.802 kB / 350.12 sec (96.9%)
5743.802 kB / 350.12 sec (97.2%)
5743.802 kB / 350.12 sec (98.4%)
5743.802 kB / 350.12 sec (99.5%)
228086.619 kB / 1239.44 sec (99.9%)
WARNING: Larger timestamp than 24-bit: 0xffffffbe
228195.570 kB / 1239.79 sec (99.9%)
Download complete
ffmpeg version N-74440-ga604289 Copyright (c) 2000-2015 the FFmpeg developers
  built with gcc 4.6.4 (Linaro GCC 4.6-2013.05) 20130412 (Mer 4.6.4-1)
  configuration: 
  libavutil      54. 30.100 / 54. 30.100
  libavcodec     56. 57.100 / 56. 57.100
  libavformat    56. 40.101 / 56. 40.101
  libavdevice    56.  4.100 / 56.  4.100
  libavfilter     5. 33.100 /  5. 33.100
  libswscale      3.  1.101 /  3.  1.101
  libswresample   1.  2.101 /  1.  2.101
Input #0, flv, from '/home/nemo/Documents/Development/Projects/get_iplayer/BBC_News_at_One_-_31_08_2015_b067glr8_default.partial.mp4.flv':
  Metadata:
    moovPosition    : 36
    avcprofile      : 77
    avclevel        : 31
    aacaot          : 2
    videoframerate  : 25
    audiochannels   : 2
    length          : 59510784
    timescale       : 48000
    sampletype      : mp4a
  Duration: 00:20:39.81, start: 0.000000, bitrate: 1507 kb/s
    Stream #0:0: Video: h264 (Main), yuv420p, 832x468 [SAR 1:1 DAR 16:9], 25 fps, 25 tbr, 1k tbn, 50 tbc
    Stream #0:1: Audio: aac (LC), 48000 Hz, stereo, fltp
[mp4 @ 0x249a490] Codec for stream 0 does not use global headers but container format requires global headers
[mp4 @ 0x249a490] Codec for stream 1 does not use global headers but container format requires global headers
Output #0, mp4, to '/home/nemo/Documents/Development/Projects/get_iplayer/BBC_News_at_One_-_31_08_2015_b067glr8_default.partial.mp4':
  Metadata:
    moovPosition    : 36
    avcprofile      : 77
    avclevel        : 31
    aacaot          : 2
    videoframerate  : 25
    audiochannels   : 2
    length          : 59510784
    timescale       : 48000
    sampletype      : mp4a
    encoder         : Lavf56.40.101
    Stream #0:0: Video: h264 ([33][0][0][0] / 0x0021), yuv420p, 832x468 [SAR 1:1 DAR 16:9], q=2-31, 25 fps, 25 tbr, 16k tbn, 1k tbc
    Stream #0:1: Audio: aac ([64][0][0][0] / 0x0040), 48000 Hz, stereo
Stream mapping:
  Stream #0:0 -> #0:0 (copy)
  Stream #0:1 -> #0:1 (copy)
Press [q] to stop, [?] for help
frame=1 fps=448 q=-1.0 Lsize=  227431kB time=00:01:00.10 bitrate=1502.7kbits/s    
frame=2000 fps=448 q=-1.0 Lsize=  100kB time=00:08:39.80 bitrate=1502.7kbits/s    
frame=8000 fps=448 q=-1.0 Lsize=  5000kB time=00:11:39.03 bitrate=1502.7kbits/s    
frame=12000 fps=448 q=-1.0 Lsize=  500001kB time=00:14:39.00 bitrate=1502.7kbits/s    
frame=22000 fps=448 q=-1.0 Lsize=  1000001kB time=00:17:39.11 bitrate=1502.7kbits/s    
frame=23000 fps=448 q=-1.0 Lsize=  170000kB time=00:18:39.57 bitrate=1502.7kbits/s    
frame=27000 fps=448 q=-1.0 Lsize=  220000kB time=00:19:39.80 bitrate=1502.7kbits/s    
frame=30995 fps=448 q=-1.0 Lsize=  227431kB time=00:20:39.80 bitrate=1502.7kbits/s    
video:212479kB audio:14146kB subtitle:0kB other streams:0kB global headers:0kB muxing overhead: 0.355836%
INFO: Recorded /home/nemo/Documents/Development/Projects/get_iplayer/BBC_News_at_One_-_31_08_2015_b067glr8_default.mp4

